<?xml version="1.0" encoding="UTF-8"?>
<svg id="Camada_1" data-name="Camada 1" xmlns="http://www.w3.org/2000/svg" viewBox="0 0 288.7 336.04" width="32" height="32">
  <defs>
    <style>
      .cls-1 {
        fill: #fff;
      }
    </style>
  </defs>
  <path class="cls-1" d="M191.16,335.98l-22.2.06c-21.73-.29-42.32-7.45-59.64-20.66L10.44,217.34c-13.45-13.33-13.66-34.48-2.01-48.23s32.55-16.84,47.72-5.94c5.75,4.13,10.21,9.37,15.36,14.31l.12-142.87c.01-14,9.56-25.72,20.6-31.08,13.63-6.62,28.16-3.41,39.34,5.52,9.49-7.55,21.7-11.43,34.35-7.47,10.18,3.19,19.93,11.4,23.66,23.15,12.4-5.17,26.04-3.38,36.55,4.68,10.39,7.96,15.63,20.62,13.93,35.06,21.9-7.69,45.43,6.03,48.6,29.33l.05,143.31c.02,54.15-42.91,98.73-97.54,98.88ZM226.83,168.07c-4.2-.11-10.68-3.25-10.68-8.31l-.08-101.17c0-7.17-4.72-12.33-11.55-12.78-6.03-.4-12.68,4.34-12.7,11.3l-.19,63.63-.15,36.05c-.03,6.71-5.37,11.36-11.97,11.33s-11.97-4.5-11.97-11.42l-.05-121.34c0-7.18-6.89-11.82-12.95-11.28-6.66.6-11.04,5.81-11.04,12.77l.02,119.85c0,6.9-5.49,11.41-12,11.41s-11.99-4.51-11.99-11.41l-.05-121.34c0-7.17-6.89-11.83-12.94-11.28-6.68.61-11.04,5.76-11.04,12.83l.02,198.58-52.84-52.72c-4.63-4.62-11.41-3.5-15.29,1.09-4.97,4.24-5.59,10.93-.75,15.73l98.22,97.11c12.81,9.28,26.9,14.82,42.62,15.32l26.23-.12c39.06-1.43,70.59-32.78,70.77-71.95l.22-48.15.13-92.72c.01-7.39-5.23-12.74-12.19-12.77s-12.17,5.47-12.17,12.73v55.48c-.01,3.81-.87,7.52-3.26,10s-5.51,3.7-10.38,3.57Z"/>
  <path d="M226.83,168.07c4.87.13,7.89-.99,10.38-3.57s3.25-6.18,3.25-10v-55.48c.02-7.26,5.23-12.76,12.18-12.73s12.2,5.38,12.19,12.77l-.13,92.72-.22,48.15c-.18,39.17-31.71,70.52-70.77,71.95l-26.23.12c-15.72-.5-29.81-6.04-42.62-15.32L26.65,199.58c-4.85-4.79-4.22-11.49.75-15.73,3.88-4.59,10.66-5.71,15.29-1.09l52.84,52.72-.02-198.58c0-7.06,4.36-12.21,11.04-12.83,6.05-.55,12.94,4.11,12.94,11.28l.05,121.34c0,6.9,5.43,11.41,11.99,11.41s12-4.51,12-11.41l-.02-119.85c0-6.97,4.37-12.18,11.04-12.77,6.06-.54,12.94,4.1,12.95,11.28l.05,121.34c0,6.92,5.45,11.38,11.97,11.42s11.94-4.62,11.97-11.33l.15-36.05.19-63.63c.02-6.96,6.66-11.69,12.7-11.3,6.83.45,11.54,5.61,11.55,12.78l.08,101.17c0,5.06,6.48,8.2,10.68,8.31Z"/>
</svg>
